<?xml version="1.0" standalone="no"?>
<!DOCTYPE svg PUBLIC "-//W3C//DTD SVG 20010904//EN"
 "http://www.w3.org/TR/2001/REC-SVG-20010904/DTD/svg10.dtd">
<svg version="1.0" xmlns="http://www.w3.org/2000/svg"
 width="300.000000pt" height="300.000000pt" viewBox="0 0 300.000000 300.000000"
 preserveAspectRatio="xMidYMid meet">
<metadata>
Created by potrace 1.10, written by Peter Selinger 2001-2011
</metadata>
<g transform="translate(0.000000,300.000000) scale(0.100000,-0.100000)"
fill="#000000" stroke="none">
<path d="M1156 2851 c-16 -3 -31 -13 -33 -21 -3 -9 -1 -11 4 -4 10 14 107 19
99 5 -4 -5 2 -10 11 -11 10 0 37 -2 61 -4 23 -2 42 0 42 5 0 13 44 11 58 -3 9
-9 12 -9 12 0 0 12 -56 29 -75 23 -24 -8 -63 -6 -99 6 -21 7 -41 12 -45 12 -3
-1 -19 -4 -35 -8z"/>
<path d="M1448 2853 c7 -3 16 -2 19 1 4 3 -2 6 -13 5 -11 0 -14 -3 -6 -6z"/>
<path d="M1425 2811 c1 -9 5 -14 10 -13 4 2 11 -2 16 -10 5 -8 28 -13 61 -13
34 0 53 -4 53 -12 0 -23 14 -24 34 -4 26 26 62 27 78 2 10 -16 8 -18 -13 -15
-13 1 -26 -2 -30 -7 -8 -14 -26 0 -18 14 5 9 4 9 -6 0 -15 -14 -3 -36 15 -29
8 3 15 0 17 -6 3 -7 9 -6 19 3 21 20 36 21 43 3 3 -8 2 -13 -2 -10 -4 2 -14 1
-22 -5 -13 -7 -12 -9 2 -9 9 0 26 -12 37 -27 22 -27 36 -27 25 1 -3 9 -11 13
-17 9 -7 -4 -8 0 -4 11 4 10 7 22 7 27 0 4 6 6 14 3 9 -3 12 -12 8 -22 -5 -16
-5 -16 10 -1 20 19 68 14 68 -7 0 -8 -4 -14 -10 -14 -5 0 -10 5 -10 11 0 5 -4
7 -10 4 -5 -3 -10 0 -10 7 0 8 -5 6 -11 -5 -13 -23 -2 -42 16 -27 9 8 15 8 20
0 10 -17 -5 -31 -27 -24 -18 5 -19 4 -7 -9 10 -11 18 -12 27 -5 8 7 12 7 12 0
0 -5 9 -8 20 -5 11 3 20 0 20 -6 0 -6 10 -10 21 -8 12 1 24 -4 26 -10 3 -7 -4
-13 -14 -14 -13 0 -14 -2 -4 -6 8 -3 20 2 28 13 7 10 13 12 13 6 0 -7 3 -11 8
-11 22 4 22 -3 -1 -21 -21 -17 -36 -19 -84 -15 -58 4 -58 4 -13 -6 25 -5 55
-8 67 -6 13 2 24 -2 28 -11 4 -10 0 -12 -12 -8 -13 5 -15 4 -7 -4 14 -14 44
-2 37 16 -3 9 1 14 12 14 9 0 14 -4 10 -9 -3 -5 1 -16 10 -24 13 -13 13 -16
-1 -21 -8 -3 -13 -10 -10 -15 4 -5 -1 -17 -10 -26 -16 -15 -16 -16 1 -13 13 2
18 -5 20 -27 2 -16 6 -44 9 -62 5 -26 3 -31 -12 -28 -21 3 -44 -14 -36 -27 6
-9 10 -33 18 -102 3 -21 8 -41 11 -45 4 -3 4 19 0 49 -4 30 -8 65 -8 78 -1 12
-5 22 -10 22 -4 0 -6 4 -2 10 11 18 37 -2 31 -24 -7 -30 4 -72 15 -54 5 8 9 9
9 2 0 -6 -7 -17 -14 -24 -12 -9 -13 -18 -5 -38 6 -16 7 -28 1 -30 -5 -1 -8
-20 -6 -40 2 -20 1 -31 -2 -24 -3 6 -10 12 -15 12 -6 0 -7 -4 -4 -10 3 -5 0
-10 -7 -11 -7 0 -2 -5 10 -12 20 -9 23 -16 18 -41 -7 -35 -22 -53 -33 -41 -5
4 -2 10 5 12 10 4 10 8 2 18 -6 8 -13 33 -14 57 -3 42 -23 88 -38 88 -4 0 -10
-5 -14 -12 -4 -6 -3 -8 3 -5 6 4 18 -4 27 -18 18 -28 21 -39 6 -30 -10 6 -7
-29 7 -100 4 -22 8 -79 8 -127 0 -47 3 -84 6 -82 3 2 9 36 13 76 4 43 16 91
29 118 18 37 22 62 22 137 0 51 2 93 6 93 3 0 4 19 2 43 -2 36 -3 83 -2 137 0
48 -9 147 -15 162 -4 9 -14 19 -22 22 -8 3 -14 13 -15 23 0 19 -59 72 -59 54
0 -6 -8 -11 -18 -11 -22 0 -62 27 -62 42 0 6 10 2 23 -10 29 -28 33 -28 33 2
0 20 -3 23 -17 16 -19 -11 -30 -4 -23 14 6 16 -15 34 -46 38 -14 2 -30 7 -37
11 -6 4 -19 4 -28 1 -10 -4 -26 3 -43 19 -15 15 -37 28 -49 30 -13 2 -26 6
-29 10 -4 4 -12 7 -18 7 -5 0 -1 -7 10 -15 17 -13 15 -13 -19 -4 -20 5 -55 8
-77 6 -21 -2 -37 -1 -35 3 2 3 -9 11 -25 17 -24 9 -27 8 -25 -6z m535 -251
c-20 -13 -33 -13 -25 0 3 6 14 10 23 10 15 0 15 -2 2 -10z"/>
<path d="M1360 2800 c11 -20 50 -28 50 -10 0 10 -32 30 -50 30 -8 0 -8 -6 0
-20z"/>
<path d="M1102 2785 c-30 -14 -60 -25 -68 -25 -21 0 -94 -75 -93 -96 1 -17 2
-17 6 -1 2 9 9 15 14 12 5 -4 9 -2 9 4 0 16 51 71 67 71 9 0 3 -10 -16 -26
-17 -14 -31 -31 -31 -37 1 -7 9 -2 19 10 17 20 20 21 32 7 12 -14 14 -14 26 2
11 16 13 16 13 2 0 -9 -5 -20 -10 -23 -6 -4 -7 -12 -3 -18 4 -7 6 -20 5 -30
-2 -10 4 -29 12 -43 9 -13 13 -24 9 -24 -5 -1 3 -7 17 -15 14 -8 20 -14 13
-15 -7 0 -10 -6 -7 -14 4 -9 -3 -16 -18 -19 l-23 -4 23 -2 c19 -1 21 -4 12
-21 -14 -25 1 -26 17 -1 8 13 29 21 68 26 61 7 62 18 5 30 -33 7 -34 6 -15 -9
11 -8 17 -16 13 -16 -4 0 -21 13 -39 30 -18 16 -35 27 -38 25 -9 -9 -31 70
-31 112 0 23 -6 48 -14 55 -23 21 24 49 79 47 41 -3 43 -4 30 -19 -18 -20 -20
-53 -2 -47 6 2 11 9 10 14 -1 5 17 21 40 36 30 20 36 27 22 28 -19 0 -19 1 0
9 16 7 12 8 -17 7 -28 -2 -34 -5 -26 -15 8 -9 5 -11 -13 -8 -13 3 -30 5 -37 5
-7 1 -10 6 -7 11 8 14 8 13 -53 -15z m58 -271 c0 -2 -7 -4 -15 -4 -8 0 -15 4
-15 10 0 5 7 7 15 4 8 -4 15 -8 15 -10z"/>
<path d="M1300 2790 c-11 -7 -5 -10 23 -10 23 0 36 4 32 10 -8 13 -35 13 -55
0z"/>
<path d="M1849 2783 c-13 -16 -12 -17 4 -4 16 13 21 21 13 21 -2 0 -10 -8 -17
-17z"/>
<path d="M1750 2776 c0 -2 8 -10 18 -17 15 -13 16 -12 3 4 -13 16 -21 21 -21
13z"/>
<path d="M1137 2758 c-9 -7 -18 -26 -21 -43 -2 -16 -1 -23 1 -15 8 26 23 35
18 12 -2 -12 0 -22 4 -22 5 0 7 -13 5 -30 -2 -16 1 -32 6 -35 5 -3 7 16 5 45
-2 28 0 62 5 75 10 28 3 32 -23 13z"/>
<path d="M1246 2737 c-26 -34 -31 -53 -20 -81 9 -24 22 -19 22 9 0 14 -5 25
-10 25 -5 0 -2 7 6 16 9 8 21 25 27 35 10 20 11 20 35 -6 13 -15 22 -31 19
-36 -4 -5 -2 -9 3 -9 6 0 13 7 16 16 9 23 8 26 -6 18 -7 -5 -9 -2 -5 9 4 12 2
14 -10 10 -10 -4 -14 -2 -10 4 6 10 -13 23 -33 23 -5 0 -20 -15 -34 -33z"/>
<path d="M1338 2763 c7 -3 16 -2 19 1 4 3 -2 6 -13 5 -11 0 -14 -3 -6 -6z"/>
<path d="M1085 2750 c-3 -5 -2 -10 4 -10 5 0 13 5 16 10 3 6 2 10 -4 10 -5 0
-13 -4 -16 -10z"/>
<path d="M1406 2749 c-16 -4 -33 -6 -38 -3 -4 3 -8 1 -8 -4 0 -6 7 -12 15 -16
8 -3 15 -11 15 -17 0 -8 -4 -8 -15 1 -20 16 -19 -1 1 -26 8 -10 13 -14 10 -8
-6 13 17 37 26 28 3 -3 9 0 14 7 5 8 3 10 -7 5 -8 -4 -3 2 10 13 13 12 26 19
30 16 3 -3 1 -9 -4 -13 -6 -4 -11 -14 -13 -22 -2 -8 -12 -20 -23 -28 -17 -11
-20 -24 -18 -73 1 -32 7 -59 12 -59 15 0 -1 -14 -19 -16 -12 -2 -14 4 -9 26 3
15 2 31 -4 34 -6 4 -6 18 -1 36 8 29 -2 42 -15 20 -4 -6 -11 -7 -17 -4 -7 5
-8 2 -2 -7 4 -8 9 -20 11 -28 1 -8 5 -17 10 -20 12 -9 14 -31 2 -31 -5 0 -7
-5 -3 -11 9 -14 -64 -3 -83 13 -9 7 -13 7 -13 0 0 -6 8 -16 18 -21 9 -6 11
-11 5 -11 -7 0 -20 11 -29 25 -9 14 -26 31 -38 37 -19 10 -18 8 4 -17 24 -26
24 -27 3 -16 -13 6 -28 21 -34 32 -6 11 -13 18 -16 15 -3 -3 0 -12 7 -21 19
-23 3 -31 -20 -10 -27 24 -57 31 -38 8 18 -22 55 -36 116 -42 6 0 12 -8 12
-17 0 -13 7 -15 30 -10 19 3 29 2 25 -4 -10 -15 38 -12 61 5 12 8 24 11 28 7
4 -3 11 0 17 8 6 10 11 11 17 4 4 -6 26 -11 50 -13 24 -1 54 -6 68 -12 14 -5
29 -7 34 -4 5 3 10 0 12 -7 2 -6 13 -12 24 -13 10 -2 33 -6 49 -10 17 -4 47
-7 68 -7 30 0 36 -2 27 -13 -9 -10 -6 -16 10 -25 13 -7 19 -17 16 -26 -3 -9
-1 -12 4 -9 6 3 10 -1 10 -10 0 -10 -5 -13 -12 -9 -7 4 -8 3 -4 -5 4 -6 12 -9
17 -6 5 4 9 1 9 -4 0 -6 -5 -11 -11 -11 -6 0 -3 -7 5 -16 9 -8 16 -20 16 -25
0 -5 4 -9 9 -9 5 0 3 17 -5 38 -7 20 -13 45 -14 54 0 9 -11 26 -25 36 -24 19
-19 42 5 27 6 -3 10 -3 10 2 0 14 -53 31 -114 36 -41 3 -61 9 -68 21 -5 9 -13
14 -18 11 -5 -3 -11 -1 -14 4 -7 11 22 23 35 15 11 -7 149 28 149 37 0 10 -83
-2 -98 -14 -7 -5 -15 -7 -19 -4 -3 4 -12 2 -20 -4 -9 -9 -13 -8 -13 0 0 7 -10
5 -27 -6 -14 -10 -37 -19 -51 -21 -24 -3 -24 -3 6 22 16 15 33 26 37 26 3 0
13 6 20 14 8 8 32 13 55 12 22 0 39 3 37 7 -1 5 -6 8 -11 7 -5 -1 -12 3 -15 8
-3 5 -26 21 -51 35 -40 22 -48 23 -65 11 -10 -8 -14 -14 -8 -14 7 0 15 5 19
11 4 8 9 7 15 -2 4 -8 13 -15 19 -15 5 -1 18 -2 28 -4 10 -1 12 -3 5 -7 -7 -2
-13 -10 -13 -16 0 -7 -19 -21 -42 -33 -24 -12 -42 -26 -40 -32 1 -7 -5 -12
-13 -12 -26 0 -17 30 14 48 17 9 32 25 35 35 3 14 -1 12 -19 -7 -30 -32 -38
-33 -30 -3 5 19 4 20 -5 5 -6 -10 -12 -34 -14 -53 -2 -20 -6 -38 -9 -41 -2 -3
-21 2 -41 10 -20 8 -36 12 -36 8 0 -4 -5 0 -10 8 -12 19 -10 101 3 93 5 -3 7
-21 4 -39 -4 -21 -2 -32 4 -29 12 8 12 68 -1 83 -6 6 -7 10 -3 7 11 -8 42 26
37 40 -4 9 5 13 29 13 l34 0 -33 -36 c-18 -20 -35 -44 -37 -54 -8 -27 1 -22
18 13 9 17 19 29 21 26 7 -6 -24 -66 -42 -85 -8 -7 -14 -18 -14 -24 0 -6 3 -8
7 -5 3 4 13 1 21 -6 13 -10 14 -9 8 1 -4 7 -2 27 5 44 11 28 14 29 21 12 6
-15 7 -13 3 7 -3 15 2 34 11 45 15 19 16 19 10 -1 -6 -20 -6 -20 9 -1 17 23 4
45 -18 30 -7 -5 -4 -1 6 9 16 14 22 15 35 5 13 -11 14 -11 7 1 -6 11 -4 13 8
8 10 -3 17 -2 17 3 0 6 -13 10 -28 10 -15 0 -32 4 -37 9 -15 13 -87 20 -119
10z m259 -119 c3 -5 1 -10 -4 -10 -6 0 -11 5 -11 10 0 6 2 10 4 10 3 0 8 -4
11 -10z"/>
<path d="M1260 2700 c0 -5 5 -9 12 -7 14 2 20 -41 7 -49 -5 -3 -9 -13 -9 -22
0 -13 2 -13 16 4 8 10 13 13 9 7 -3 -7 -2 -13 3 -13 14 0 9 55 -7 74 -15 18
-31 21 -31 6z"/>
<path d="M1617 2690 c10 -11 22 -20 27 -20 5 0 1 9 -9 20 -10 11 -22 20 -26
20 -5 0 -1 -9 8 -20z"/>
<path d="M991 2658 c-21 -21 -28 -34 -20 -38 8 -5 6 -11 -7 -19 -11 -6 -14
-11 -6 -11 17 0 40 22 35 35 -2 6 8 22 22 38 36 38 16 34 -24 -5z"/>
<path d="M1660 2684 c0 -5 12 -17 25 -27 23 -17 25 -17 25 -1 0 10 -3 14 -7
11 -3 -4 -15 0 -25 10 -10 9 -18 12 -18 7z"/>
<path d="M1170 2671 c0 -6 4 -12 8 -15 5 -3 9 1 9 9 0 8 -4 15 -9 15 -4 0 -8
-4 -8 -9z"/>
<path d="M1201 2659 c-1 -30 23 -57 34 -39 4 6 1 9 -6 8 -7 -2 -16 10 -20 27
-6 29 -7 29 -8 4z"/>
<path d="M1113 2650 c2 -11 9 -26 15 -32 10 -10 10 -6 1 20 -12 36 -20 42 -16
12z"/>
<path d="M1022 2648 c-15 -15 -16 -48 -1 -48 5 0 7 -6 3 -12 -5 -8 -1 -8 12 2
10 8 16 10 11 5 -4 -4 -1 -18 7 -31 18 -27 12 -34 -31 -34 -18 0 -33 -4 -33
-9 0 -5 12 -8 26 -5 15 3 23 1 20 -5 -4 -5 -1 -13 5 -17 7 -4 9 -3 6 3 -4 6 2
18 12 27 13 11 21 14 26 7 10 -17 25 -13 19 4 -4 8 -10 13 -14 10 -7 -4 -22
18 -24 37 -1 3 -4 10 -8 14 -5 4 -8 20 -8 36 0 30 -9 35 -28 16z"/>
<path d="M1740 2631 c0 -7 -4 -9 -10 -6 -5 3 -10 2 -10 -4 0 -15 14 -21 30
-11 12 7 12 12 2 22 -9 9 -12 9 -12 -1z"/>
<path d="M936 2615 c-3 -9 -11 -13 -17 -9 -8 5 -9 3 -4 -6 5 -9 2 -10 -14 -5
-17 5 -20 3 -15 -10 5 -11 14 -15 28 -11 20 5 20 4 2 -9 -10 -8 -22 -12 -26
-10 -5 3 -10 -2 -14 -10 -3 -8 -10 -15 -16 -15 -6 0 -8 5 -4 12 4 6 3 8 -3 5
-15 -9 -13 -55 2 -61 8 -3 16 2 19 11 5 11 10 12 19 5 7 -6 18 -7 25 -3 10 6
10 11 -3 21 -20 17 -19 34 2 26 10 -4 14 -4 10 0 -4 4 -2 13 4 21 6 7 8 13 5
13 -4 0 -2 9 4 21 7 11 10 23 7 25 -2 3 -7 -2 -11 -11z m-31 -96 c11 -17 -1
-21 -15 -4 -8 9 -8 15 -2 15 6 0 14 -5 17 -11z"/>
<path d="M1250 2611 c0 -6 4 -13 10 -16 6 -3 7 1 4 9 -7 18 -14 21 -14 7z"/>
<path d="M1312 2613 c-9 -3 -7 -13 9 -34 25 -36 41 -29 26 11 -12 31 -13 32
-35 23z"/>
<path d="M1830 2596 c0 -8 4 -17 9 -20 5 -4 7 3 4 14 -6 23 -13 26 -13 6z"/>
<path d="M1490 2565 c0 -14 4 -25 9 -25 4 0 6 11 3 25 -2 14 -6 25 -8 25 -2 0
-4 -11 -4 -25z"/>
<path d="M1718 2533 c12 -2 30 -2 40 0 9 3 -1 5 -23 4 -22 0 -30 -2 -17 -4z"/>
<path d="M937 2513 c3 -7 15 -13 27 -13 15 0 17 3 7 9 -11 7 -11 9 0 14 8 2 2
4 -12 3 -17 -1 -25 -6 -22 -13z"/>
<path d="M1658 2523 c7 -3 16 -2 19 1 4 3 -2 6 -13 5 -11 0 -14 -3 -6 -6z"/>
<path d="M1755 2520 l-40 -7 40 -1 c22 0 49 3 60 8 20 9 20 9 0 8 -11 -1 -38
-4 -60 -8z"/>
<path d="M1855 2509 c-11 -4 -35 -8 -53 -8 -41 -1 -33 -21 9 -21 16 0 29 -4
29 -10 0 -5 -4 -10 -9 -10 -5 0 -8 -10 -6 -22 3 -28 35 -89 35 -68 0 13 1 13
10 0 15 -23 12 -29 -9 -25 -15 3 -18 0 -14 -13 5 -11 8 -12 11 -3 2 6 12 -3
21 -21 20 -39 16 -56 -9 -33 -16 15 -18 15 -24 0 -9 -25 -8 -26 17 -23 41 6
50 17 33 43 -9 13 -13 31 -10 40 4 8 -1 26 -10 40 -9 14 -16 28 -15 31 0 4 -6
11 -15 16 -22 12 -9 38 17 34 12 -3 24 -5 27 -5 3 -1 -1 -5 -8 -10 -10 -6 -7
-12 13 -25 15 -10 29 -16 31 -13 8 7 -47 67 -61 67 -7 0 -16 7 -19 16 -8 21
28 10 55 -17 23 -23 41 -25 33 -4 -4 8 -10 12 -15 9 -5 -3 -6 1 -3 9 7 18 -35
36 -61 26z"/>
<path d="M965 2490 c-16 -4 -23 -9 -15 -10 23 -4 44 1 55 11 10 10 4 10 -40
-1z"/>
<path d="M1940 2491 c0 -6 4 -13 10 -16 6 -3 7 1 4 9 -7 18 -14 21 -14 7z"/>
<path d="M1084 2476 c-3 -8 -11 -13 -17 -11 -17 6 -73 -47 -80 -76 l-6 -24 20
25 c53 68 59 75 67 65 13 -19 27 -13 28 11 2 27 -4 31 -12 10z"/>
<path d="M843 2462 c17 -19 13 -62 -6 -62 -6 0 -3 -6 8 -13 10 -8 15 -19 11
-25 -10 -17 0 -15 19 4 9 10 22 13 33 9 13 -6 8 -11 -24 -25 -23 -10 -44 -25
-47 -34 -4 -10 -3 -15 1 -12 4 2 8 -15 9 -39 1 -24 6 -52 12 -63 10 -19 37
-187 40 -253 1 -33 -1 -36 -23 -32 -13 3 -27 0 -30 -5 -4 -7 3 -9 19 -6 14 2
25 1 26 -3 1 -8 5 -49 12 -123 3 -25 1 -50 -4 -56 -10 -12 -4 -20 41 -57 12
-10 19 -25 16 -33 -3 -8 -1 -14 4 -14 13 0 14 -1 -17 87 -24 71 -27 93 -28
231 0 98 3 152 10 152 5 0 3 5 -5 10 -11 7 -11 10 -2 10 7 0 10 5 7 10 -4 6
-11 8 -16 5 -5 -4 -9 -2 -9 3 0 6 7 13 16 16 10 4 13 2 8 -6 -5 -8 -2 -9 10
-5 10 4 20 7 22 7 2 0 4 5 4 11 0 5 -4 7 -10 4 -19 -12 -28 5 -20 39 4 18 3
40 -1 49 -6 9 -5 18 0 22 6 3 8 12 4 20 -6 18 15 47 28 39 10 -6 11 -4 15 44
1 17 -2 32 -7 32 -5 0 -9 -9 -9 -21 0 -13 -4 -18 -12 -13 -7 4 -8 3 -4 -4 4
-6 0 -22 -9 -36 -9 -13 -17 -40 -18 -59 -2 -20 -6 -39 -10 -43 -11 -12 -2 77
11 109 7 16 10 33 7 37 -3 5 3 13 12 19 17 10 17 10 1 11 -10 0 -18 -3 -18 -7
0 -5 -11 -8 -25 -8 -14 0 -25 3 -25 8 0 4 5 7 11 7 5 0 7 6 3 13 -6 9 -4 9 8
-1 14 -11 17 -10 22 6 7 20 46 38 46 21 0 -5 -5 -9 -12 -9 -6 0 -9 -2 -6 -5 2
-3 19 2 36 11 33 16 44 28 16 17 -8 -3 -25 -1 -37 5 -37 17 -69 22 -89 11 -12
-6 -18 -6 -18 1 0 5 -5 10 -12 10 -7 0 -5 -7 5 -18z m62 -2 c4 -6 11 -8 16 -4
6 3 5 -3 -2 -15 -12 -19 -15 -19 -31 -4 -10 9 -15 20 -12 24 7 12 21 11 29 -1z
m-5 -130 c-6 -12 -8 -30 -5 -40 9 -28 -10 -25 -29 4 -11 18 -13 27 -4 32 7 4
8 3 4 -4 -4 -7 -2 -12 3 -12 6 0 11 6 11 14 0 12 9 20 28 25 1 1 -2 -8 -8 -19z
m10 -125 c5 3 10 2 10 -4 0 -5 -4 -13 -10 -16 -5 -3 -10 0 -10 7 0 10 -3 9
-11 -2 -9 -13 -10 -12 -5 2 3 10 1 20 -4 23 -6 4 -10 16 -10 28 1 18 4 16 15
-11 8 -18 19 -31 25 -27z"/>
<path d="M1016 2468 c3 -5 10 -6 15 -3 13 9 11 12 -6 12 -8 0 -12 -4 -9 -9z"/>
<path d="M1880 2400 c0 -5 5 -10 11 -10 5 0 7 5 4 10 -3 6 -8 10 -11 10 -2 0
-4 -4 -4 -10z"/>
<path d="M1946 2375 c3 -16 11 -33 17 -37 18 -11 21 0 5 19 -9 10 -18 25 -22
33 -3 8 -3 2 0 -15z"/>
<path d="M1900 2371 c0 -5 5 -13 10 -16 6 -3 10 -2 10 4 0 5 -4 13 -10 16 -5
3 -10 2 -10 -4z"/>
<path d="M1925 2319 c-4 -6 -5 -12 -2 -15 2 -3 7 2 10 11 7 17 1 20 -8 4z"/>
<path d="M945 2300 c-3 -5 -1 -10 4 -10 6 0 11 5 11 10 0 6 -2 10 -4 10 -3 0
-8 -4 -11 -10z"/>
<path d="M1920 2270 c0 -11 4 -20 9 -20 5 0 7 9 4 20 -3 11 -7 20 -9 20 -2 0
-4 -9 -4 -20z"/>
<path d="M1260 2259 c0 -5 5 -7 10 -4 6 3 10 8 10 11 0 2 -4 4 -10 4 -5 0 -10
-5 -10 -11z"/>
<path d="M1915 2230 c3 -5 11 -10 16 -10 6 0 7 5 4 10 -3 6 -11 10 -16 10 -6
0 -7 -4 -4 -10z"/>
<path d="M1846 2218 c3 -4 10 -5 16 -2 6 4 15 0 20 -7 8 -12 9 -11 5 1 -2 8
-13 16 -25 16 -12 1 -19 -3 -16 -8z"/>
<path d="M943 2205 c-3 -9 -3 -18 -1 -21 3 -3 8 4 11 16 6 23 -1 27 -10 5z"/>
<path d="M1830 2194 c0 -6 11 -21 26 -35 21 -19 24 -20 18 -5 -5 14 -4 17 4
12 7 -4 12 -3 12 2 0 6 -7 13 -16 16 -8 3 -12 2 -9 -4 11 -17 -7 -11 -21 8 -7
9 -14 12 -14 6z"/>
<path d="M1927 2194 c-4 -4 -7 -14 -7 -23 0 -13 2 -13 9 -2 6 10 11 6 19 -15
6 -16 11 -22 11 -14 0 21 -24 62 -32 54z"/>
<path d="M1614 2151 c4 -5 -12 -9 -36 -9 -24 0 -55 -5 -69 -11 -15 -5 -30 -7
-33 -4 -3 4 -6 1 -6 -6 0 -8 6 -11 16 -7 13 5 14 3 6 -6 -8 -10 -2 -13 26 -13
21 -1 73 -5 116 -9 58 -6 77 -6 72 3 -5 7 1 11 16 11 18 0 20 -2 8 -10 -8 -5
-10 -10 -5 -11 6 0 18 -2 27 -4 14 -3 15 0 5 15 -11 19 -40 37 -67 42 -8 2
-18 7 -22 12 -9 13 -61 20 -54 7z m44 -8 c-2 -13 14 -43 23 -43 4 0 6 7 3 15
-5 11 -2 13 10 9 24 -9 2 -31 -30 -31 -19 0 -22 2 -13 8 10 6 8 9 -8 9 -13 0
-23 5 -23 11 0 6 7 9 15 5 8 -3 14 -2 14 2 -2 12 1 22 6 22 3 0 4 -3 3 -7z"/>
<path d="M1053 2103 c-42 -39 -54 -64 -39 -85 11 -15 14 -15 36 4 22 17 22 18
3 9 -30 -15 -31 -14 -26 13 4 17 10 23 21 19 9 -4 13 -2 9 4 -4 6 3 22 14 37
26 33 20 33 -18 -1z"/>
<path d="M1153 2119 c-56 -10 -95 -33 -43 -25 l35 5 -38 -20 c-22 -11 -36 -23
-33 -26 9 -10 96 21 96 34 0 11 8 10 36 -2 42 -17 47 -18 40 -7 -3 5 1 9 9 9
8 0 12 -4 9 -8 -2 -4 1 -11 7 -15 8 -4 9 -3 5 4 -11 19 5 14 21 -5 13 -16 13
-15 0 7 -9 16 -29 29 -53 35 -21 5 -41 12 -44 15 -3 3 -24 3 -47 -1z"/>
<path d="M1430 2123 c1 -14 30 -47 36 -41 3 4 -4 16 -15 27 -12 12 -21 18 -21
14z"/>
<path d="M1413 2094 c2 -28 47 -80 47 -54 0 6 -7 13 -15 16 -8 4 -15 14 -15
23 0 9 -5 23 -10 31 -7 11 -9 7 -7 -16z"/>
<path d="M1901 2104 c0 -11 3 -14 6 -6 3 7 2 16 -1 19 -3 4 -6 -2 -5 -13z"/>
<path d="M940 2088 c-12 -22 -12 -22 6 -6 10 10 15 20 12 24 -4 3 -12 -5 -18
-18z"/>
<path d="M1475 2070 c-3 -6 1 -7 9 -4 18 7 21 14 7 14 -6 0 -13 -4 -16 -10z"/>
<path d="M1716 2056 c21 -15 30 -14 19 3 -3 6 -14 11 -23 11 -13 0 -13 -2 4
-14z"/>
<path d="M1460 2005 c-13 -35 -13 -42 3 -48 10 -4 13 2 9 19 -3 17 0 24 12 24
9 0 13 -6 10 -15 -5 -11 0 -15 17 -14 13 1 33 -1 44 -5 17 -6 17 -5 -3 10 -21
16 -21 17 -5 30 26 19 35 17 31 -8 -2 -19 2 -24 26 -26 16 -2 34 2 40 9 8 9 8
10 -1 5 -7 -4 -13 -2 -13 3 0 6 9 11 20 11 11 0 20 -4 20 -10 0 -5 12 -13 28
-16 15 -4 32 -10 37 -14 6 -4 28 -4 50 0 35 7 37 8 10 9 -16 1 -54 12 -83 26
-65 30 -140 41 -183 26 -23 -8 -36 -8 -45 0 -11 9 -16 5 -24 -16z"/>
<path d="M1126 1995 c-35 -12 -129 -95 -107 -95 5 0 33 18 62 40 57 42 76 49
76 26 0 -9 -7 -12 -16 -9 -12 4 -13 3 -5 -6 6 -7 23 -9 42 -5 24 5 32 12 32
28 1 20 1 20 15 3 7 -10 21 -17 30 -15 14 3 14 6 -5 26 -24 26 -65 28 -124 7z"/>
<path d="M1260 2000 c0 -5 5 -10 10 -10 6 0 10 5 10 10 0 6 -4 10 -10 10 -5 0
-10 -4 -10 -10z"/>
<path d="M2033 1983 c-7 -2 -13 -9 -13 -14 0 -6 5 -7 12 -3 6 4 25 11 42 15
l31 7 -30 0 c-16 0 -36 -2 -42 -5z"/>
<path d="M2082 1958 c-16 -16 -15 -29 1 -25 9 1 12 -24 13 -96 2 -88 -1 -103
-23 -143 -53 -95 -117 -128 -126 -65 l-3 26 -11 -25 c-25 -58 50 -71 101 -17
43 46 87 131 89 172 1 19 5 35 9 35 9 0 -2 110 -14 133 -10 20 -20 21 -36 5z
m35 -100 c-3 -7 -5 -2 -5 12 0 14 2 19 5 13 2 -7 2 -19 0 -25z"/>
<path d="M1493 1943 c18 -28 178 -44 210 -20 14 10 2 12 -70 13 -49 0 -101 4
-117 9 -19 5 -27 4 -23 -2z"/>
<path d="M1222 1924 c-12 -8 -22 -12 -22 -9 0 4 -7 -1 -16 -10 -10 -9 -25 -14
-36 -12 -11 3 -16 1 -11 -5 4 -8 -4 -9 -24 -5 -25 5 -35 1 -54 -21 -13 -14
-16 -20 -6 -12 10 7 43 17 73 21 57 8 125 37 132 57 5 16 -9 15 -36 -4z"/>
<path d="M1770 1930 c20 -13 33 -13 25 0 -3 6 -14 10 -23 10 -15 0 -15 -2 -2
-10z"/>
<path d="M2027 1923 c-10 -9 -9 -23 2 -23 5 0 11 7 15 15 5 15 -5 20 -17 8z"/>
<path d="M1746 1885 c10 -8 24 -14 29 -14 6 0 1 6 -9 14 -11 8 -24 15 -30 15
-5 0 -1 -7 10 -15z"/>
<path d="M840 1847 c0 -65 26 -181 51 -225 11 -20 18 -28 14 -18 -3 11 2 27
11 37 16 18 16 19 0 19 -9 0 -14 -4 -11 -10 3 -5 2 -10 -3 -10 -19 0 -32 55
-32 139 0 67 -4 92 -15 101 -13 11 -15 6 -15 -33z"/>
<path d="M1986 1843 c-13 -28 -14 -38 -5 -47 9 -8 10 -6 5 9 -6 20 -6 20 9 1
19 -25 19 -52 0 -60 -10 -4 -15 1 -16 17 -1 17 -3 15 -12 -11 -10 -32 -3 -56
11 -36 4 5 24 18 45 27 26 13 37 24 37 40 -1 21 -1 22 -15 3 -8 -11 -16 -16
-16 -10 -3 19 -5 30 -13 47 -5 10 -4 23 3 31 9 10 8 15 -2 19 -9 3 -20 -8 -31
-30z"/>
<path d="M1478 1824 c-4 -4 4 -20 17 -36 27 -32 33 -85 11 -94 -8 -3 -31 -1
-52 5 -32 9 -40 8 -47 -4 -4 -9 -12 -13 -18 -10 -5 4 -19 -1 -31 -9 l-22 -16
30 0 c16 0 40 7 52 16 18 12 26 13 37 4 21 -17 59 -5 75 24 10 19 15 22 25 13
6 -7 14 -19 18 -27 3 -9 6 -10 6 -2 1 6 8 12 16 12 8 0 15 8 15 18 0 14 -2 15
-10 2 -8 -12 -15 -9 -37 20 -52 66 -78 91 -85 84z"/>
<path d="M1236 1756 c-14 -24 -26 -52 -26 -62 0 -10 -7 -25 -16 -35 -9 -10
-16 -33 -17 -53 0 -19 -5 -32 -11 -29 -5 4 -6 1 -2 -6 6 -9 12 -8 26 6 9 10
13 20 8 21 -4 2 1 15 12 29 11 14 20 32 20 39 0 8 5 14 10 14 6 0 10 11 10 24
0 12 5 37 11 55 17 49 5 47 -25 -3z"/>
<path d="M1920 1749 c0 -5 5 -7 10 -4 6 3 10 8 10 11 0 2 -4 4 -10 4 -5 0 -10
-5 -10 -11z"/>
<path d="M1831 1724 c0 -11 3 -14 6 -6 3 7 2 16 -1 19 -3 4 -6 -2 -5 -13z"/>
<path d="M2022 1711 c4 -21 34 -26 41 -8 4 10 -3 17 -19 20 -19 3 -24 1 -22
-12z"/>
<path d="M1290 1680 c-12 -8 -9 -10 13 -10 15 0 27 5 27 10 0 13 -20 13 -40 0z"/>
<path d="M1950 1682 c0 -5 14 -21 30 -37 17 -16 30 -25 30 -21 0 4 -12 18 -27
32 -15 14 -19 22 -10 18 10 -3 17 -1 17 5 0 6 -9 11 -20 11 -11 0 -20 -4 -20
-8z"/>
<path d="M1580 1664 c0 -3 14 -24 31 -45 17 -22 28 -46 25 -54 -3 -8 -1 -15 5
-15 20 0 20 30 1 62 -19 30 -62 66 -62 52z"/>
<path d="M1780 1666 c0 -2 7 -7 16 -10 8 -3 12 -2 9 4 -6 10 -25 14 -25 6z"/>
<path d="M1711 1654 c-1 -6 5 -17 12 -23 10 -8 14 -7 14 4 0 8 -4 12 -8 9 -4
-2 -10 2 -12 8 -4 8 -6 9 -6 2z"/>
<path d="M1555 1630 c-3 -5 -1 -10 4 -10 6 0 11 5 11 10 0 6 -2 10 -4 10 -3 0
-8 -4 -11 -10z"/>
<path d="M1115 1580 c-3 -5 -2 -10 4 -10 5 0 13 5 16 10 3 6 2 10 -4 10 -5 0
-13 -4 -16 -10z"/>
<path d="M1896 1563 c-4 -16 -9 -41 -12 -57 -3 -16 -9 -37 -14 -47 -13 -24
-12 -38 1 -19 8 12 10 12 8 -5 -3 -24 19 -130 34 -162 6 -13 25 -32 42 -43 17
-11 37 -30 45 -44 14 -28 40 -42 40 -23 0 8 3 8 8 2 13 -19 92 -62 92 -51 0 2
-24 19 -52 37 -92 58 -128 90 -158 143 -27 46 -30 60 -30 141 0 50 4 105 9
123 5 17 6 32 1 32 -5 0 -11 -12 -14 -27z"/>
<path d="M910 1573 c0 -21 33 -53 55 -53 29 0 39 14 27 37 -9 15 -10 14 -16
-4 -7 -23 -46 -21 -46 3 0 7 -4 16 -10 19 -5 3 -10 2 -10 -2z"/>
<path d="M1410 1571 c0 -5 -23 -9 -50 -9 -28 -1 -60 -4 -70 -7 -29 -9 -24 -26
5 -19 21 5 25 3 25 -14 0 -30 -18 -36 -38 -13 -20 24 -47 28 -84 13 -21 -9
-27 -18 -26 -40 1 -16 -2 -35 -6 -43 -4 -8 2 -3 14 10 11 13 19 30 16 37 -3 7
0 16 6 20 7 4 8 3 4 -4 -4 -7 -2 -12 3 -12 6 0 11 5 11 10 0 15 20 12 65 -10
27 -13 60 -19 100 -19 71 1 116 11 97 23 -15 9 -16 42 -1 52 6 3 15 1 19 -6 5
-9 9 -9 14 -1 12 18 26 12 26 -10 0 -14 -5 -19 -15 -16 -8 4 -17 2 -21 -4 -11
-19 4 -21 36 -6 19 10 28 11 23 4 -4 -7 7 -1 24 13 18 14 32 28 32 33 2 14
-42 7 -55 -10 -12 -17 -13 -17 -14 3 0 17 -5 20 -32 18 -30 -3 -31 -3 -8 5 23
8 24 9 3 10 -12 1 -25 -3 -28 -9 -3 -5 -17 -10 -31 -10 -13 0 -24 5 -24 10 0
6 -4 10 -10 10 -5 0 -10 -4 -10 -9z m-20 -34 c3 0 13 3 23 8 21 9 47 -10 47
-36 0 -21 -24 -28 -85 -26 -30 2 -41 7 -43 20 -6 32 6 49 30 42 13 -4 25 -7
28 -8z"/>
<path d="M1791 1544 c0 -11 3 -14 6 -6 3 7 2 16 -1 19 -3 4 -6 -2 -5 -13z"/>
<path d="M1010 1517 c0 -17 45 -95 90 -158 41 -56 52 -83 76 -177 15 -61 30
-110 32 -107 9 9 -42 211 -60 237 -11 16 -16 34 -12 40 4 7 3 10 -1 5 -10 -9
-47 22 -39 34 3 5 1 9 -4 9 -4 0 -19 19 -32 43 -30 53 -50 84 -50 74z"/>
<path d="M1631 1495 c0 -16 -2 -41 -5 -54 -3 -13 -2 -20 2 -17 4 4 7 11 7 14
1 4 4 17 9 29 4 13 3 31 -3 40 -8 15 -10 13 -10 -12z"/>
<path d="M1480 1448 c-25 -12 -39 -23 -33 -25 12 -4 83 33 83 43 0 5 4 6 -50
-18z"/>
<path d="M1732 1463 c0 -5 -7 -25 -16 -47 -9 -21 -15 -40 -12 -43 2 -2 7 6 11
19 4 13 10 25 14 28 3 3 12 15 19 28 10 18 10 22 -3 22 -8 0 -14 -3 -13 -7z"/>
<path d="M1340 1426 c0 -2 7 -6 15 -10 8 -3 15 -1 15 4 0 6 -7 10 -15 10 -8 0
-15 -2 -15 -4z"/>
<path d="M1415 1420 c3 -5 8 -10 11 -10 2 0 4 5 4 10 0 6 -5 10 -11 10 -5 0
-7 -4 -4 -10z"/>
<path d="M1380 1390 c0 -5 5 -10 10 -10 6 0 10 5 10 10 0 6 -4 10 -10 10 -5 0
-10 -4 -10 -10z"/>
<path d="M1625 1370 c-3 -5 -1 -10 4 -10 6 0 11 5 11 10 0 6 -2 10 -4 10 -3 0
-8 -4 -11 -10z"/>
<path d="M1790 1343 c-12 -16 -40 -47 -61 -70 -22 -24 -35 -43 -29 -43 6 0 13
7 16 15 4 8 12 15 20 15 8 0 13 3 12 8 -2 4 14 24 35 45 21 20 35 37 30 38 -4
0 1 4 12 9 16 7 17 9 3 9 -9 1 -26 -11 -38 -26z"/>
<path d="M1821 1303 c-10 -26 -10 -27 4 -9 8 11 15 23 15 28 0 15 -7 8 -19
-19z"/>
<path d="M1645 1300 c3 -5 8 -10 11 -10 2 0 4 5 4 10 0 6 -5 10 -11 10 -5 0
-7 -4 -4 -10z"/>
<path d="M1226 1225 c44 -32 131 -71 176 -80 30 -6 30 14 1 21 -67 15 -126 38
-168 65 -63 40 -69 36 -9 -6z"/>
<path d="M1436 1235 c-11 -8 -17 -17 -14 -20 3 -3 16 3 29 14 27 23 14 28 -15
6z"/>
<path d="M1530 1221 c0 -7 -7 -19 -15 -28 -9 -8 -13 -18 -10 -21 3 -4 10 -1
14 7 5 7 12 13 17 14 5 1 7 9 5 17 -4 20 -11 27 -11 11z"/>
<path d="M1585 1222 c3 -3 -3 -11 -13 -19 -15 -13 -15 -13 5 -3 28 13 37 27
18 27 -8 0 -13 -3 -10 -5z"/>
<path d="M1350 1200 c0 -6 7 -10 15 -10 8 0 15 2 15 4 0 2 -7 6 -15 10 -8 3
-15 1 -15 -4z"/>
<path d="M1445 1185 l-30 -14 26 -1 c15 0 32 7 39 15 15 18 5 18 -35 0z"/>
<path d="M1700 1185 c0 -10 29 -24 34 -17 3 6 -3 12 -14 15 -11 3 -20 4 -20 2z"/>
<path d="M2090 1044 c-97 -85 -318 -251 -395 -296 -106 -62 -225 -92 -316 -80
-120 17 -179 116 -173 293 1 49 1 89 -1 89 -7 0 -123 -69 -174 -103 -29 -21
-60 -37 -70 -37 -9 0 -42 -16 -74 -35 -59 -35 -204 -106 -244 -119 -12 -4 -34
-21 -48 -39 -14 -18 -31 -39 -38 -47 -56 -67 -71 -100 -108 -244 -21 -83 -45
-174 -53 -203 -15 -56 -19 -223 -5 -223 5 0 9 14 9 32 l0 32 30 -34 c36 -43
39 -28 5 23 -21 31 -26 50 -27 107 -1 39 2 73 6 77 7 7 20 -8 29 -32 3 -5 8
-7 12 -3 4 4 1 18 -7 30 -15 24 -14 86 2 102 5 5 6 21 3 36 -3 15 0 31 6 34 7
5 11 -4 11 -23 0 -52 56 -207 100 -281 23 -39 46 -68 50 -65 4 2 9 54 12 114
l6 110 63 128 c35 70 74 143 87 160 14 18 20 33 16 33 -5 0 -3 4 4 8 7 5 15
19 17 33 3 13 9 25 14 27 5 2 7 11 4 21 -3 10 0 22 6 25 7 5 9 0 5 -11 -4 -13
0 -11 16 7 12 14 18 19 14 11 -5 -10 -3 -12 5 -7 9 6 9 11 0 22 -10 12 -9 13
5 8 11 -4 16 -1 16 10 0 9 8 26 17 37 70 87 232 253 239 246 3 -2 0 -17 -6
-33 -6 -16 -12 -67 -13 -114 -1 -70 3 -92 21 -127 22 -41 87 -113 104 -113 4
0 -15 22 -42 48 -28 27 -50 54 -50 61 0 7 4 9 10 6 6 -3 7 1 3 10 -4 12 -8 13
-13 5 -22 -36 -29 135 -9 215 17 67 31 44 23 -39 -4 -50 -2 -86 6 -112 8 -21
14 -46 15 -55 2 -23 55 -89 72 -89 8 0 12 -4 9 -9 -10 -15 77 -35 147 -33 38
0 92 8 120 17 104 33 137 48 130 58 -4 6 0 8 9 4 11 -4 18 1 21 15 4 14 11 19
21 15 9 -4 20 1 25 12 6 10 25 24 43 31 18 8 42 20 53 28 20 14 20 14 0 8 -19
-6 -19 -6 -1 9 10 8 23 12 27 9 5 -3 9 2 9 10 0 9 6 16 14 16 8 0 17 7 20 16
3 8 10 13 14 10 5 -3 18 5 29 17 11 12 30 29 43 37 13 8 37 29 54 45 60 59 88
76 103 63 10 -8 17 -8 24 -1 12 12 51 5 43 -8 -3 -5 2 -9 11 -9 9 0 14 -4 11
-9 -3 -5 12 -19 35 -30 22 -12 38 -17 35 -12 -4 5 7 3 24 -5 17 -9 28 -20 25
-25 -4 -5 0 -6 8 -3 8 3 17 -2 21 -11 3 -9 10 -13 16 -10 5 3 10 -1 10 -9 0
-19 20 -22 20 -3 0 7 5 5 11 -5 5 -9 16 -15 23 -12 7 3 16 -2 20 -11 3 -9 10
-13 16 -10 5 3 10 2 10 -2 0 -5 16 -17 35 -27 19 -11 35 -23 35 -28 0 -5 4 -7
9 -4 4 3 29 -8 55 -24 26 -17 52 -30 58 -30 6 0 8 -3 5 -7 -4 -3 2 -13 13 -20
11 -8 17 -20 14 -26 -4 -7 -3 -9 1 -4 5 4 23 -6 39 -22 23 -23 35 -28 46 -20
12 8 6 18 -35 55 -27 24 -81 63 -120 86 -168 99 -351 211 -367 225 -9 8 -21
12 -27 9 -5 -4 -13 -1 -17 5 -5 8 -3 9 7 4 12 -8 12 -6 0 8 -7 9 -26 17 -40
17 -15 0 -36 7 -47 15 -10 8 -23 14 -29 14 -5 0 -44 -30 -85 -65z m105 28 c-3
-3 -11 0 -18 7 -9 10 -8 11 6 5 10 -3 15 -9 12 -12z m-1214 -181 c-6 -10 -27
-34 -46 -52 -21 -21 -33 -40 -30 -49 3 -8 3 -11 -1 -7 -9 9 -54 -40 -54 -59 0
-8 -4 -13 -9 -10 -11 7 -42 -55 -34 -68 3 -5 1 -6 -6 -2 -6 4 -14 0 -18 -10
-3 -10 -14 -25 -22 -34 -19 -20 -53 -80 -57 -99 -1 -8 -7 -17 -12 -20 -5 -3
-15 -25 -22 -48 -7 -24 -16 -43 -20 -43 -4 0 -7 -6 -7 -12 -1 -30 -13 -71 -24
-84 -6 -7 -8 -25 -5 -38 3 -14 2 -27 -4 -31 -10 -6 -7 -111 4 -160 7 -27 5
-25 -17 12 -14 23 -23 50 -21 61 3 10 -2 49 -10 86 -9 38 -16 112 -16 170 0
95 -2 104 -20 109 -11 3 -18 0 -17 -7 1 -6 -3 -10 -10 -9 -6 2 -11 -6 -10 -17
1 -10 5 -17 9 -14 18 11 35 -52 29 -108 -4 -32 -3 -58 2 -58 4 0 5 -5 2 -10
-4 -6 3 -37 14 -70 25 -70 26 -93 5 -65 -25 34 -63 171 -70 255 -6 75 -5 82
16 105 19 20 21 27 11 39 -9 11 -10 20 -2 33 10 17 12 15 15 -16 0 -8 7 -16
14 -18 8 -3 12 9 13 39 0 24 4 52 9 63 8 18 9 17 9 -7 1 -16 6 -28 11 -28 6 0
10 -5 10 -11 0 -5 -5 -7 -11 -4 -7 5 -9 -4 -7 -26 5 -49 24 -47 25 3 2 112 2
115 35 147 32 31 68 41 68 19 0 -9 3 -8 9 2 6 8 7 19 4 25 -4 5 -3 7 2 3 4 -4
14 -3 22 3 10 9 13 8 13 -2 0 -7 10 -3 25 11 14 13 25 20 25 15 0 -5 5 -4 12
3 7 7 17 12 23 12 5 0 4 -4 -4 -9 -8 -5 -9 -11 -3 -15 6 -3 19 7 28 24 10 16
24 30 31 30 7 0 21 7 30 14 77 63 78 64 64 37z m-174 -276 c0 -8 -4 -12 -9 -9
-5 3 -6 10 -3 15 9 13 12 11 12 -6z m-28 -49 c-13 -29 -32 -36 -22 -8 8 22 25
44 30 39 2 -3 -2 -16 -8 -31z m-44 -82 c-9 -14 -19 -23 -23 -19 -4 3 -1 10 7
14 7 5 13 12 13 17 0 5 3 16 6 23 4 11 7 11 10 3 2 -7 -4 -24 -13 -38z m-195
-20 c0 -14 -12 -19 -23 -8 -9 9 4 35 14 28 5 -3 9 -12 9 -20z"/>
<path d="M789 783 c-1 -4 -1 -12 0 -17 1 -5 -5 -16 -14 -26 -13 -14 -13 -17 0
-17 8 0 12 3 10 6 -6 11 24 43 34 36 6 -3 11 -4 11 -1 0 9 -40 27 -41 19z"/>
<path d="M670 719 c0 -11 4 -18 10 -14 5 3 7 12 3 20 -7 21 -13 19 -13 -6z"/>
<path d="M641 679 c-14 -41 -14 -44 2 -31 11 10 22 62 13 62 -2 0 -9 -14 -15
-31z"/>
<path d="M694 568 l-19 -23 23 19 c21 18 27 26 19 26 -2 0 -12 -10 -23 -22z"/>
<path d="M572 460 c-2 -45 1 -58 10 -55 16 6 18 115 3 115 -6 0 -12 -27 -13
-60z"/>
<path d="M615 430 c-3 -5 1 -10 9 -10 9 0 16 5 16 10 0 6 -4 10 -9 10 -6 0
-13 -4 -16 -10z"/>
<path d="M501 420 c0 -8 4 -24 9 -35 5 -13 9 -14 9 -5 0 8 -4 24 -9 35 -5 13
-9 14 -9 5z"/>
<path d="M605 400 c-3 -5 -1 -10 4 -10 6 0 11 5 11 10 0 6 -2 10 -4 10 -3 0
-8 -4 -11 -10z"/>
<path d="M571 378 c-1 -9 -4 -25 -8 -35 -6 -17 -5 -17 15 1 21 19 31 43 13 32
-5 -4 -12 0 -14 6 -4 8 -6 7 -6 -4z"/>
<path d="M511 344 c0 -11 3 -14 6 -6 3 7 2 16 -1 19 -3 4 -6 -2 -5 -13z"/>
<path d="M574 307 c-2 -7 0 -31 5 -52 l9 -40 1 53 c1 51 -4 65 -15 39z"/>
<path d="M1440 1030 c-9 -6 -10 -10 -3 -10 6 0 15 5 18 10 8 12 4 12 -15 0z"/>
<path d="M2202 1012 c-21 -16 -41 -69 -21 -57 5 4 9 13 9 21 0 8 4 14 10 14 5
0 14 9 20 20 13 24 11 24 -18 2z"/>
<path d="M1535 980 c-3 -6 1 -7 9 -4 18 7 21 14 7 14 -6 0 -13 -4 -16 -10z"/>
<path d="M2106 982 c-3 -5 1 -9 9 -9 8 0 12 4 9 9 -3 4 -7 8 -9 8 -2 0 -6 -4
-9 -8z"/>
<path d="M1085 905 c-19 -30 -35 -58 -35 -64 0 -5 -3 -11 -7 -13 -5 -1 -16
-18 -26 -36 -18 -33 -18 -33 0 -22 10 7 23 22 29 33 6 12 28 52 48 90 45 81
40 89 -9 12z"/>
<path d="M2082 904 c-12 -14 -20 -30 -17 -34 3 -5 -3 -13 -12 -19 -10 -5 -15
-12 -12 -16 10 -9 40 25 33 36 -3 6 3 13 13 15 10 3 19 14 20 25 2 24 3 24
-25 -7z"/>
<path d="M1996 872 c-3 -5 1 -9 9 -9 8 0 12 4 9 9 -3 4 -7 8 -9 8 -2 0 -6 -4
-9 -8z"/>
<path d="M1101 833 c-10 -26 -10 -27 4 -9 8 11 15 23 15 28 0 15 -7 8 -19 -19z"/>
<path d="M2465 850 c-3 -6 1 -7 9 -4 18 7 21 14 7 14 -6 0 -13 -4 -16 -10z"/>
<path d="M2395 839 c-3 -4 2 -6 10 -5 21 3 28 13 10 13 -9 0 -18 -4 -20 -8z"/>
<path d="M1977 822 c-10 -10 -17 -22 -17 -27 0 -4 9 2 20 15 11 13 20 25 20
27 0 7 -8 2 -23 -15z"/>
<path d="M1080 790 c0 -5 5 -10 10 -10 6 0 10 5 10 10 0 6 -4 10 -10 10 -5 0
-10 -4 -10 -10z"/>
<path d="M1866 779 c5 -8 -30 -31 -38 -24 -2 2 -4 -5 -4 -15 0 -17 5 -15 33
12 38 37 37 35 18 35 -8 0 -12 -4 -9 -8z"/>
<path d="M2009 773 c-13 -16 -12 -17 4 -4 16 13 21 21 13 21 -2 0 -10 -8 -17
-17z"/>
<path d="M1927 765 c-8 -8 -18 -11 -22 -7 -5 4 -5 2 -1 -5 6 -12 4 -19 -24
-73 -13 -25 -13 -25 8 -7 12 11 18 25 15 35 -4 10 -2 13 5 8 7 -4 12 -2 12 5
0 7 10 23 22 36 23 25 9 33 -15 8z"/>
<path d="M1070 759 c0 -5 5 -7 10 -4 6 3 10 -1 10 -9 0 -9 5 -16 10 -16 14 0
13 13 -2 28 -15 15 -28 15 -28 1z"/>
<path d="M2179 723 c-13 -16 -12 -17 4 -4 9 7 17 15 17 17 0 8 -8 3 -21 -13z"/>
<path d="M1090 709 c0 -5 5 -7 10 -4 6 3 10 8 10 11 0 2 -4 4 -10 4 -5 0 -10
-5 -10 -11z"/>
<path d="M1070 705 c0 -5 5 -17 10 -25 5 -8 10 -10 10 -5 0 6 -5 17 -10 25 -5
8 -10 11 -10 5z"/>
<path d="M1127 695 c-4 -8 -2 -15 4 -15 6 0 7 -5 3 -12 -4 -6 -3 -8 4 -5 10 7
11 32 0 42 -3 3 -8 -1 -11 -10z"/>
<path d="M2004 692 c5 -15 2 -22 -11 -25 -15 -4 -15 -5 -2 -6 26 -2 40 22 22
38 -13 12 -14 11 -9 -7z"/>
<path d="M992 671 c-5 -44 -2 -75 5 -82 5 -5 8 5 7 23 -1 17 1 41 6 53 6 15 4
22 -4 22 -7 0 -13 -7 -14 -16z"/>
<path d="M1724 674 c-18 -14 -18 -15 4 -4 12 6 22 13 22 15 0 8 -5 6 -26 -11z"/>
<path d="M1761 666 c-9 -11 -8 -15 5 -20 9 -4 19 -4 22 -1 3 3 0 5 -6 5 -6 0
-9 7 -6 15 8 19 0 19 -15 1z"/>
<path d="M2100 671 c0 -6 4 -13 10 -16 6 -3 7 1 4 9 -7 18 -14 21 -14 7z"/>
<path d="M931 654 c0 -11 3 -14 6 -6 3 7 2 16 -1 19 -3 4 -6 -2 -5 -13z"/>
<path d="M1050 660 c0 -5 5 -10 10 -10 6 0 10 -8 10 -17 0 -13 3 -14 11 -6 9
9 8 16 -4 27 -18 18 -27 20 -27 6z"/>
<path d="M2810 638 c-149 -82 -245 -186 -389 -420 -22 -38 -39 -68 -36 -68 2
0 45 60 94 133 145 215 277 341 355 339 24 0 27 2 12 7 -20 8 -20 8 0 13 11 3
26 -2 33 -10 34 -35 86 -290 97 -472 7 -104 14 -117 14 -25 0 113 -19 294 -41
385 -19 76 -58 152 -77 149 -4 -1 -32 -15 -62 -31z"/>
<path d="M1645 651 c-9 -15 15 -25 28 -12 9 9 7 10 -7 5 -13 -5 -17 -4 -12 4
4 7 5 12 2 12 -3 0 -7 -4 -11 -9z"/>
<path d="M2480 650 c-8 -5 -10 -10 -5 -10 6 0 17 5 25 10 8 5 11 10 5 10 -5 0
-17 -5 -25 -10z"/>
<path d="M1135 640 c-16 -7 -17 -9 -3 -9 9 -1 20 4 23 9 7 11 7 11 -20 0z"/>
<path d="M1614 633 c15 -4 16 -7 5 -15 -11 -7 -11 -9 -1 -6 20 5 16 23 -5 25
-15 2 -15 1 1 -4z"/>
<path d="M1879 638 c-5 -18 -6 -38 -1 -34 7 8 12 36 6 36 -2 0 -4 -1 -5 -2z"/>
<path d="M1298 618 c5 -5 16 -8 23 -6 8 3 3 7 -10 11 -17 4 -21 3 -13 -5z"/>
<path d="M1709 623 c-1 -5 -1 -11 0 -15 0 -5 -5 -8 -11 -8 -7 0 -2 -7 10 -16
13 -9 26 -13 29 -10 4 3 1 6 -6 6 -7 0 -10 10 -7 25 3 14 0 25 -5 25 -5 0 -10
-3 -10 -7z"/>
<path d="M1947 613 c3 -7 6 -13 8 -13 2 0 5 6 8 13 3 8 -1 14 -8 14 -7 0 -11
-6 -8 -14z"/>
<path d="M2470 610 c-8 -12 -15 -24 -16 -28 -1 -24 -18 -79 -26 -89 -6 -7 -8
-13 -5 -13 3 0 -3 -25 -14 -55 -10 -30 -19 -65 -19 -77 0 -19 -39 -198 -54
-248 -3 -8 -9 -30 -15 -48 -5 -18 -6 -30 -1 -27 5 3 14 22 21 43 6 20 15 42
19 47 6 9 20 68 35 143 2 13 7 33 11 45 4 12 7 38 7 57 0 19 5 38 11 42 6 4
11 15 12 25 3 66 4 68 15 53 8 -12 10 -9 6 13 -2 16 0 27 7 27 6 0 5 4 -3 9
-9 6 -10 11 -2 15 6 4 9 12 6 17 -4 5 -1 9 5 9 7 0 10 7 6 15 -3 8 -1 15 3 15
5 0 11 7 15 15 8 22 -7 18 -24 -5z"/>
<path d="M1125 610 c-4 -6 -4 -14 -1 -17 3 -4 6 0 6 8 0 12 2 12 10 -1 5 -8
12 -12 15 -9 3 4 -1 12 -9 18 -10 9 -16 9 -21 1z"/>
<path d="M1548 613 c7 -3 16 -2 19 1 4 3 -2 6 -13 5 -11 0 -14 -3 -6 -6z"/>
<path d="M2406 605 c-9 -26 -7 -32 5 -12 6 10 9 21 6 23 -2 3 -7 -2 -11 -11z"/>
<path d="M1348 603 c7 -3 16 -2 19 1 4 3 -2 6 -13 5 -11 0 -14 -3 -6 -6z"/>
<path d="M1466 601 c-17 -6 -17 -8 -4 -14 10 -3 19 0 22 9 3 8 4 14 3 13 -1 0
-11 -4 -21 -8z"/>
<path d="M1508 603 c7 -3 16 -2 19 1 4 3 -2 6 -13 5 -11 0 -14 -3 -6 -6z"/>
<path d="M1570 600 c-9 -6 -10 -10 -3 -10 6 0 15 5 18 10 8 12 4 12 -15 0z"/>
<path d="M2856 602 c-3 -4 4 -9 15 -9 23 -2 25 3 4 10 -8 4 -16 3 -19 -1z"/>
<path d="M896 585 c-3 -8 -1 -15 4 -15 6 0 10 7 10 15 0 8 -2 15 -4 15 -2 0
-6 -7 -10 -15z"/>
<path d="M1826 578 c3 -5 10 -6 15 -3 13 9 11 12 -6 12 -8 0 -12 -4 -9 -9z"/>
<path d="M2865 570 c4 -6 11 -8 16 -5 14 9 11 15 -7 15 -8 0 -12 -5 -9 -10z"/>
<path d="M976 555 c-3 -9 -10 -13 -16 -10 -5 3 -10 1 -10 -4 0 -17 27 -13 34
5 4 9 5 19 2 21 -2 2 -6 -3 -10 -12z"/>
<path d="M1917 550 c-3 -11 -3 -20 -1 -20 2 0 8 9 14 20 6 11 7 20 2 20 -6 0
-12 -9 -15 -20z"/>
<path d="M1655 540 c-3 -5 -2 -10 4 -10 5 0 13 5 16 10 3 6 2 10 -4 10 -5 0
-13 -4 -16 -10z"/>
<path d="M867 533 c-4 -3 -7 -11 -7 -17 0 -6 5 -5 12 2 6 6 9 14 7 17 -3 3 -9
2 -12 -2z"/>
<path d="M1951 507 c-13 -21 -12 -21 5 -5 10 10 16 20 13 22 -3 3 -11 -5 -18
-17z"/>
<path d="M2365 499 c-4 -6 -5 -12 -2 -15 2 -3 7 2 10 11 7 17 1 20 -8 4z"/>
<path d="M2880 501 c0 -5 5 -11 10 -13 6 -2 12 -13 13 -26 0 -12 5 -22 10 -22
5 0 6 7 3 16 -3 9 -6 22 -6 29 0 7 -7 15 -15 19 -8 3 -15 1 -15 -3z"/>
<path d="M1896 492 c-3 -5 1 -9 9 -9 8 0 12 4 9 9 -3 4 -7 8 -9 8 -2 0 -6 -4
-9 -8z"/>
<path d="M2305 453 c-3 -10 -1 -19 6 -22 8 -2 8 -5 0 -10 -6 -4 -12 -26 -14
-49 -1 -23 -4 -42 -7 -42 -3 0 -6 -72 -6 -160 -1 -89 0 -159 2 -158 8 9 30
169 24 173 -5 3 -6 14 -3 25 3 11 0 27 -7 35 -7 9 -8 15 -2 15 5 0 10 10 10
23 -1 59 6 123 14 134 5 7 5 14 -1 17 -6 4 -8 13 -4 21 3 8 3 15 0 15 -3 0 -8
-8 -12 -17z"/>
<path d="M1580 445 c-7 -9 -8 -15 -2 -15 5 0 12 7 16 15 3 8 4 15 2 15 -2 0
-9 -7 -16 -15z"/>
<path d="M1881 444 c-1 -6 5 -17 12 -23 10 -8 14 -7 14 4 0 8 -4 12 -8 9 -4
-2 -10 2 -12 8 -4 8 -6 9 -6 2z"/>
<path d="M2696 413 c-6 -14 -5 -15 5 -6 7 7 10 15 7 18 -3 3 -9 -2 -12 -12z"/>
<path d="M937 409 c7 -7 15 -10 18 -7 3 3 -2 9 -12 12 -14 6 -15 5 -6 -5z"/>
<path d="M786 393 c-6 -14 -5 -15 5 -6 7 7 10 15 7 18 -3 3 -9 -2 -12 -12z"/>
<path d="M836 375 c-3 -8 -1 -15 4 -15 6 0 10 7 10 15 0 8 -2 15 -4 15 -2 0
-6 -7 -10 -15z"/>
<path d="M1716 371 c-3 -5 2 -15 12 -22 15 -12 16 -12 5 2 -7 9 -10 19 -6 22
3 4 4 7 0 7 -3 0 -8 -4 -11 -9z"/>
<path d="M1853 357 c-2 -16 0 -18 6 -8 5 7 14 10 20 7 6 -4 11 -5 11 -2 0 3
-8 10 -18 15 -14 8 -18 5 -19 -12z"/>
<path d="M770 360 c0 -5 5 -10 10 -10 6 0 10 5 10 10 0 6 -4 10 -10 10 -5 0
-10 -4 -10 -10z"/>
<path d="M2645 350 c-10 -11 -15 -20 -11 -20 11 0 39 30 34 36 -3 2 -13 -5
-23 -16z"/>
<path d="M1471 342 c0 -13 -5 -20 -11 -17 -6 3 -7 -1 -4 -9 4 -11 0 -16 -11
-16 -9 0 -14 -4 -11 -9 4 -5 0 -12 -6 -14 -9 -4 -7 -6 3 -6 26 -2 51 34 46 66
-3 23 -4 24 -6 5z"/>
<path d="M2918 336 c-3 -16 -1 -23 8 -19 6 2 11 11 10 18 -4 26 -13 26 -18 1z"/>
<path d="M1796 328 c3 -5 10 -6 15 -3 13 9 11 12 -6 12 -8 0 -12 -4 -9 -9z"/>
<path d="M2235 330 c3 -5 8 -10 11 -10 2 0 4 5 4 10 0 6 -5 10 -11 10 -5 0 -7
-4 -4 -10z"/>
<path d="M1846 315 c-3 -8 -1 -15 4 -15 6 0 10 7 10 15 0 8 -2 15 -4 15 -2 0
-6 -7 -10 -15z"/>
<path d="M455 290 c-3 -5 -1 -10 4 -10 6 0 11 5 11 10 0 6 -2 10 -4 10 -3 0
-8 -4 -11 -10z"/>
<path d="M2589 283 c-13 -16 -12 -17 4 -4 16 13 21 21 13 21 -2 0 -10 -8 -17
-17z"/>
<path d="M2916 291 c-4 -7 -5 -15 -2 -18 9 -9 19 4 14 18 -4 11 -6 11 -12 0z"/>
<path d="M2230 279 c0 -5 5 -7 10 -4 6 3 10 8 10 11 0 2 -4 4 -10 4 -5 0 -10
-5 -10 -11z"/>
<path d="M1860 263 c0 -10 4 -14 8 -8 4 6 11 13 16 18 5 4 2 7 -7 7 -10 0 -17
-8 -17 -17z"/>
<path d="M2926 244 c-4 -10 -2 -13 6 -8 7 5 9 -1 6 -20 -3 -14 -2 -26 1 -26 4
0 5 -15 3 -32 -2 -20 3 -41 13 -53 9 -11 13 -14 9 -6 -6 12 -9 44 -13 129 -1
34 -15 43 -25 16z"/>
<path d="M1405 242 c2 -3 0 -13 -5 -23 -6 -10 -6 -20 -2 -23 4 -3 13 8 19 23
8 22 7 28 -3 28 -8 0 -12 -2 -9 -5z"/>
<path d="M1665 230 c-3 -5 -1 -10 4 -10 6 0 11 5 11 10 0 6 -2 10 -4 10 -3 0
-8 -4 -11 -10z"/>
<path d="M1831 214 c0 -11 3 -14 6 -6 3 7 2 16 -1 19 -3 4 -6 -2 -5 -13z"/>
<path d="M1857 223 c-2 -5 -7 -26 -11 -48 -4 -30 -3 -35 4 -17 5 12 15 22 22
22 11 0 11 2 0 8 -7 5 -10 16 -6 25 6 17 -1 24 -9 10z"/>
<path d="M2475 210 c-3 -5 1 -10 9 -10 9 0 16 5 16 10 0 6 -4 10 -9 10 -6 0
-13 -4 -16 -10z"/>
<path d="M2529 203 c-13 -16 -12 -17 4 -4 9 7 17 15 17 17 0 8 -8 3 -21 -13z"/>
<path d="M1370 181 c0 -6 4 -12 8 -15 5 -3 9 1 9 9 0 8 -4 15 -9 15 -4 0 -8
-4 -8 -9z"/>
<path d="M1640 180 c0 -5 5 -10 10 -10 6 0 10 5 10 10 0 6 -4 10 -10 10 -5 0
-10 -4 -10 -10z"/>
<path d="M2459 177 c-24 -18 -82 -96 -102 -137 l-18 -34 31 29 c16 16 30 34
30 41 0 7 3 14 8 16 6 3 75 98 69 98 -1 0 -9 -6 -18 -13z"/>
<path d="M1629 143 c-13 -16 -12 -17 4 -4 16 13 21 21 13 21 -2 0 -10 -8 -17
-17z"/>
<path d="M1370 140 c0 -5 5 -10 11 -10 5 0 7 5 4 10 -3 6 -8 10 -11 10 -2 0
-4 -4 -4 -10z"/>
<path d="M1746 113 c-6 -14 -5 -15 5 -6 7 7 10 15 7 18 -3 3 -9 -2 -12 -12z"/>
<path d="M1811 114 c0 -11 3 -14 6 -6 3 7 2 16 -1 19 -3 4 -6 -2 -5 -13z"/>
<path d="M1844 122 c4 -3 14 -7 22 -8 9 -1 13 0 10 4 -4 3 -14 7 -22 8 -9 1
-13 0 -10 -4z"/>
<path d="M1832 81 c1 -16 6 -27 10 -25 11 7 10 42 -2 49 -6 4 -10 -5 -8 -24z"/>
<path d="M1806 73 c-6 -14 -5 -15 5 -6 7 7 10 15 7 18 -3 3 -9 -2 -12 -12z"/>
<path d="M2952 56 c16 -31 18 -32 18 -4 0 15 -6 25 -14 25 -12 0 -13 -5 -4
-21z"/>
<path d="M647 63 c-10 -9 -9 -53 1 -53 5 0 8 13 8 30 0 33 0 33 -9 23z"/>
</g>
</svg>
